<?xml version="1.0" encoding="UTF-8"?>
<svg id="Layer_1" data-name="Layer 1" xmlns="http://www.w3.org/2000/svg" viewBox="0 0 23.28 31.85">
  <path d="M23.28,11.64v4.03c0,.42-.51.63-.81.33L11.98,5.51c-.18-.18-.48-.18-.67,0L.81,16.01c-.3.3-.81.09-.81-.33v-4.03c0-.13.05-.25.14-.33L11.31.14c.18-.18.48-.18.67,0l11.17,11.17c.09.09.14.21.14.33ZM.33,20.74l10.97,10.97c.18.18.48.18.67,0l10.97-10.97c.18-.18.18-.48,0-.67l-2.02-2.02c-.18-.18-.48-.18-.67,0l-8.29,8.29c-.18.18-.48.18-.67,0l-5.6-5.6c-.18-.18-.18-.48,0-.67l5.6-5.6c.18-.18.48-.18.67,0l1.12,1.12c.18.18.18.48,0,.67l-3.81,3.81c-.18.18-.18.48,0,.67l2.02,2.02c.18.18.48.18.67,0l6.5-6.5c.18-.18.18-.48,0-.67l-6.5-6.5c-.18-.18-.48-.18-.67,0L.33,20.07c-.18.18-.18.48,0,.67Z"/>
  	<style>
    @media (prefers-color-scheme:dark){:root{filter:invert(100%)}}
  </style>
</svg>