<?xml version="1.0" encoding="UTF-8"?>
<svg id="Layer_1" data-name="Layer 1" xmlns="http://www.w3.org/2000/svg" viewBox="0 0 221.3 50.13">
  <path class="cls-1" d="M36.65,18.33v6.35c0,.66-.8,1-1.27.53L18.85,8.68c-.29-.29-.76-.29-1.05,0L1.27,25.2c-.47.47-1.27.14-1.27-.53v-6.35c0-.2.08-.39.22-.53L17.8.22c.29-.29.76-.29,1.05,0l17.58,17.58c.14.14.22.33.22.53ZM.53,32.64l17.27,17.27c.29.29.76.29,1.05,0l17.27-17.27c.29-.29.29-.76,0-1.05l-3.18-3.18c-.29-.29-.76-.29-1.05,0l-13.04,13.04c-.29.29-.76.29-1.05,0l-8.81-8.81c-.29-.29-.29-.76,0-1.05l8.81-8.81c.29-.29.76-.29,1.05,0l1.77,1.77c.29.29.29.76,0,1.05l-5.99,5.99c-.29.29-.29.76,0,1.05l3.18,3.18c.29.29.76.29,1.05,0l10.22-10.22c.29-.29.29-.76,0-1.05l-10.22-10.22c-.29-.29-.76-.29-1.05,0L.53,31.59c-.29.29-.29.76,0,1.05ZM66.19,18.63v-4.19h-19.22v21.25h19.22v-4.19h-14.34v-4.41h12.31v-4.19h-12.31v-4.28h14.34ZM79.44,13.5v9.19c-1.34-2.09-3.28-3.19-5.69-3.19-4.22,0-7.12,3.34-7.12,8.28s2.91,8.28,7.12,8.28c2.41,0,4.34-1.09,5.69-3.19v2.81h4.69V13.5h-4.69ZM79.44,30.07c-1,1.34-2.56,2.12-4.19,2.12-2.37,0-3.84-1.69-3.84-4.41s1.47-4.41,3.84-4.41c1.62,0,3.19.78,4.19,2.12v4.56ZM97.87,19.88v10.19c-1.09,1.41-2.5,2.12-4.16,2.12-1.94,0-2.91-.97-2.91-2.97v-9.34h-4.69v10.31c0,3.69,2.09,5.87,5.69,5.87,2.5,0,4.5-1.06,6.06-3.19v2.81h4.69v-15.81h-4.69ZM115.09,19.5c-2.41,0-4.34,1.09-5.69,3.19v-2.81h-4.69v21.75h4.69v-8.75c1.34,2.09,3.28,3.19,5.69,3.19,4.22,0,7.12-3.34,7.12-8.28s-2.91-8.28-7.12-8.28ZM113.59,32.19c-1.62,0-3.19-.78-4.19-2.12v-4.56c1-1.34,2.56-2.12,4.19-2.12,2.37,0,3.84,1.69,3.84,4.41s-1.47,4.41-3.84,4.41ZM134.53,19.5c-2.84,0-4.84,1.22-6.28,3.66v-3.28h-4.69v15.81h4.69v-9.37c1.25-1.69,2.91-2.47,5.28-2.47.69,0,1.41.06,2,.16l.28-4.37c-.37-.09-.84-.12-1.28-.12ZM152.99,29.1c.06-.47.06-.84.06-1.31,0-5.06-3.37-8.28-8.66-8.28s-9.06,3.31-9.06,8.28c0,5.22,3.66,8.28,9.84,8.28,2.78,0,5.16-.62,7.12-1.87l-1.41-3.53c-1.72,1.06-3.53,1.59-5.47,1.59-2.91,0-4.72-1.12-5.22-3.16h12.78ZM144.37,23.22c2.09,0,3.56,1.06,4.12,2.87h-8.22c.53-1.81,2-2.87,4.09-2.87ZM165.04,19.5c-2.5,0-4.5,1.06-6.06,3.19v-2.81h-4.69v15.81h4.69v-10.19c1.09-1.41,2.5-2.12,4.16-2.12,1.94,0,2.91.97,2.91,2.97v9.34h4.69v-10.31c0-3.69-2.09-5.87-5.69-5.87ZM189.4,29.1c.06-.47.06-.84.06-1.31,0-5.06-3.37-8.28-8.66-8.28s-9.06,3.31-9.06,8.28c0,5.22,3.66,8.28,9.84,8.28,2.78,0,5.16-.62,7.12-1.87l-1.41-3.53c-1.72,1.06-3.53,1.59-5.47,1.59-2.91,0-4.72-1.12-5.22-3.16h12.78ZM180.78,23.22c2.09,0,3.56,1.06,4.12,2.87h-8.22c.53-1.81,2-2.87,4.09-2.87ZM202.21,19.88v10.19c-1.09,1.41-2.5,2.12-4.16,2.12-1.94,0-2.91-.97-2.91-2.97v-9.34h-4.69v10.31c0,3.69,2.09,5.87,5.69,5.87,2.5,0,4.5-1.06,6.06-3.19v2.81h4.69v-15.81h-4.69ZM220.02,19.5c-2.84,0-4.84,1.22-6.28,3.66v-3.28h-4.69v15.81h4.69v-9.37c1.25-1.69,2.91-2.47,5.28-2.47.69,0,1.41.06,2,.16l.28-4.37c-.37-.09-.84-.12-1.28-.12Z" fill="#723e98"/>
</svg>